<mxfile host="app.diagrams.net" modified="2020-12-07T21:29:50.818Z" agent="5.0 (Windows NT 10.0; Win64; x64) AppleWebKit/537.36 (KHTML, like Gecko) Chrome/86.0.4240.198 Safari/537.36" etag="m1eCU7b9EYgMGm0xui0E" version="13.6.10" type="github">
  <diagram id="C5RBs43oDa-KdzZeNtuy" name="Page-1">
    <mxGraphModel dx="1422" dy="839" grid="1" gridSize="10" guides="1" tooltips="1" connect="1" arrows="1" fold="1" page="1" pageScale="1" pageWidth="827" pageHeight="1169" math="0" shadow="0">
      <root>
        <mxCell id="WIyWlLk6GJQsqaUBKTNV-0" />
        <mxCell id="WIyWlLk6GJQsqaUBKTNV-1" parent="WIyWlLk6GJQsqaUBKTNV-0" />
        <mxCell id="qbrfh7KyGv1r-v8un3VR-1" value="Server" style="text;html=1;strokeColor=none;fillColor=none;align=center;verticalAlign=middle;whiteSpace=wrap;rounded=0;" vertex="1" parent="WIyWlLk6GJQsqaUBKTNV-1">
          <mxGeometry x="10" y="10" width="290" height="60" as="geometry" />
        </mxCell>
        <mxCell id="qbrfh7KyGv1r-v8un3VR-2" value="Endpoints" style="text;html=1;strokeColor=none;fillColor=none;align=center;verticalAlign=middle;whiteSpace=wrap;rounded=0;" vertex="1" parent="WIyWlLk6GJQsqaUBKTNV-1">
          <mxGeometry x="1460" y="30" width="70" height="20" as="geometry" />
        </mxCell>
        <mxCell id="qbrfh7KyGv1r-v8un3VR-3" value="HTTP&lt;br&gt;Port 89" style="rounded=0;whiteSpace=wrap;html=1;" vertex="1" parent="WIyWlLk6GJQsqaUBKTNV-1">
          <mxGeometry x="1435" y="90" width="120" height="60" as="geometry" />
        </mxCell>
        <mxCell id="qbrfh7KyGv1r-v8un3VR-4" value="TCP&lt;br&gt;Port 5482" style="rounded=0;whiteSpace=wrap;html=1;" vertex="1" parent="WIyWlLk6GJQsqaUBKTNV-1">
          <mxGeometry x="1435" y="180" width="120" height="60" as="geometry" />
        </mxCell>
        <mxCell id="qbrfh7KyGv1r-v8un3VR-6" value="UDP&lt;br&gt;Port 2486" style="rounded=0;whiteSpace=wrap;html=1;" vertex="1" parent="WIyWlLk6GJQsqaUBKTNV-1">
          <mxGeometry x="1435" y="270" width="120" height="60" as="geometry" />
        </mxCell>
        <mxCell id="qbrfh7KyGv1r-v8un3VR-7" value="Program&lt;br&gt;Start" style="rhombus;whiteSpace=wrap;html=1;" vertex="1" parent="WIyWlLk6GJQsqaUBKTNV-1">
          <mxGeometry x="115" y="70" width="80" height="80" as="geometry" />
        </mxCell>
        <mxCell id="qbrfh7KyGv1r-v8un3VR-8" value="Server Config" style="text;html=1;strokeColor=none;fillColor=none;align=center;verticalAlign=middle;whiteSpace=wrap;rounded=0;" vertex="1" parent="WIyWlLk6GJQsqaUBKTNV-1">
          <mxGeometry x="490" y="30" width="107" height="20" as="geometry" />
        </mxCell>
        <mxCell id="qbrfh7KyGv1r-v8un3VR-10" value="&lt;h1&gt;&lt;font style=&quot;font-size: 18px&quot;&gt;static void Load()&lt;/font&gt;&lt;/h1&gt;&lt;p&gt;Params: EventCallback (Func&amp;lt;&amp;gt;)&lt;br&gt;Will load the server configuration and attempt to parse it, will make exceptions if fails, and if everything is successfull return to the EventCallback with no parameters.&lt;/p&gt;" style="text;html=1;strokeColor=none;fillColor=none;spacing=5;spacingTop=-20;whiteSpace=wrap;overflow=hidden;rounded=0;" vertex="1" parent="WIyWlLk6GJQsqaUBKTNV-1">
          <mxGeometry x="425.25" y="70" width="236.5" height="120" as="geometry" />
        </mxCell>
        <mxCell id="qbrfh7KyGv1r-v8un3VR-12" value="&lt;h1&gt;&lt;font style=&quot;font-size: 18px&quot;&gt;static JSONNode config {get}&lt;/font&gt;&lt;/h1&gt;&lt;p&gt;The server config, by default it is null. .&lt;/p&gt;" style="text;html=1;strokeColor=none;fillColor=none;spacing=5;spacingTop=-20;whiteSpace=wrap;overflow=hidden;rounded=0;" vertex="1" parent="WIyWlLk6GJQsqaUBKTNV-1">
          <mxGeometry x="425.25" y="220" width="264.75" height="120" as="geometry" />
        </mxCell>
      </root>
    </mxGraphModel>
  </diagram>
</mxfile>
